# xmcd
#
# Track frame offsets: 
#        150
#        5990
#        18008
#        30246
#        49170
#        67686
#        86886
#        103674
#        116590
#        135371
#        149984
#        166137
#        177749
#        192888
#        206889
#        217070
#        233974
#        266302
#        284754
#
# Disc length: 4144 seconds
#
# Revision: 2
# Processed by: cddbd v1.5.2PL0 Copyright (c) Steve Scherf et al.
# Submitted via: ExactAudioCopy v1.0b4
#
DISCID=1e102e13
DTITLE=Various Artist - Blues News - Bluesnews Collection Vol. 9
DYEAR=2014
DGENRE=Blues
TTITLE0=Peter Funk - Peter Funk - Doin' My Time
TTITLE1=Pete Gavin - Pete Gavin - Washing Machine
TTITLE2=Die Ducktails - Die Ducktails - Rock With Me
TTITLE3=Lucy Malheur - Lucy Malheur - I Got the Blues
TTITLE4=Lucy Malheur - Harpface and the Heydays - So Sharp
TTITLE5=Janni Petsos - Janni Petsos - Hillbilly Blues
TTITLE6=BillBrook BluesBand - BillBrook BluesBand - Something is Wrong
TTITLE7=Baum's Bluesbenders - Baum's Bluesbenders - Online
TTITLE8=The Gap - The Gap - Lil' Death
TTITLE9=Blue Line Three - Blue Line Three - Roadsong
TTITLE10=Äl spuit auf's Blues Combo - Äl spuit auf's Blues Combo - TV 
TTITLE10=Mama
TTITLE11=Maik W. Garthe - Maik W. Garthe - These Old Boots
TTITLE12=Blues Bureau - Blues Bureau - Born to Boogie
TTITLE13=Pascal Geiser - Pascal Geiser - Blues on My Tail
TTITLE14=Andi Saitenhieb - Andi Saitenhieb - Düsseldorf am Rhein
TTITLE15=Flat Blues LTD - Flat Blues LTD - Broke
TTITLE16=Blues Lick - Blues Lick - Da Deifesweg
TTITLE17=Wolfgang Becker and Christoph Keisers - Wolfgang Becker and Chris
TTITLE17=toph Keisers - Der Gott der Stadt
TTITLE18=Schubi und die Spätzünder - Schubi und die Spätzünder - Wasch
TTITLE18=küchenblues
EXTD=
EXTT0=
EXTT1=
EXTT2=
EXTT3=
EXTT4=
EXTT5=
EXTT6=
EXTT7=
EXTT8=
EXTT9=
EXTT10=
EXTT11=
EXTT12=
EXTT13=
EXTT14=
EXTT15=
EXTT16=
EXTT17=
EXTT18=
PLAYORDER=
